<?xml version="1.0" encoding="UTF-8"?>
<svg width="24px" height="24px" viewBox="0 0 24 24" version="1.1" xmlns="http://www.w3.org/2000/svg">
    <g stroke="none" stroke-width="1" fill="none" fill-rule="evenodd">
        <path d="M12,2C6.48,2 2,6.48 2,12C2,13.96 2.58,15.75 3.54,17.29L2.1,22L6.9,20.58C8.39,21.5 10.13,22 12,22C17.52,22 22,17.52 22,12C22,6.48 17.52,2 12,2ZM12,20C10.34,20 8.8,19.5 7.5,18.63L7.11,18.38L4.23,19.23L5.09,16.38L4.82,15.97C3.91,14.64 3.39,13.07 3.39,11.39C3.39,7.27 7.27,3.39 11.39,3.39C15.51,3.39 19.39,7.27 19.39,11.39C19.39,15.51 15.51,19.39 11.39,19.39L12,20Z" fill="#000000" fill-rule="nonzero"/>
        <path d="M17.07,14.24C16.93,14.17 15.59,13.52 15.47,13.47C15.35,13.42 15.26,13.4 15.17,13.54C15.08,13.68 14.57,14.29 14.49,14.38C14.41,14.47 14.33,14.48 14.19,14.41C14.05,14.34 13.18,14.06 12.16,13.14C11.37,12.43 10.83,11.55 10.75,11.41C10.67,11.27 10.74,11.2 10.81,11.13C10.87,11.07 10.95,10.97 11.02,10.89C11.09,10.81 11.11,10.75 11.16,10.66C11.21,10.57 11.19,10.49 11.16,10.42C11.13,10.35 10.58,9.01 10.47,8.73C10.36,8.46 10.25,8.5 10.16,8.5C10.08,8.49 9.99,8.49 9.9,8.49C9.81,8.49 9.66,8.52 9.54,8.66C9.42,8.8 8.73,9.45 8.73,10.79C8.73,12.13 9.72,13.42 9.87,13.51C10.02,13.6 10.83,14.84 12.06,15.42C13.29,16 13.29,15.75 13.66,15.71C14.03,15.67 15.13,15.06 15.24,14.72C15.36,14.39 15.36,14.1 15.32,14.04C15.28,13.98 15.2,13.95 15.07,13.89L17.07,14.24Z" fill="#000000" fill-rule="nonzero"/>
    </g>
</svg> 